<svg version="1.2" xmlns="http://www.w3.org/2000/svg" viewBox="0 0 256 256" width="256" height="256"><style>.a{fill:#969696}</style><path class="a" d="m68 116.6h-27.5v8.2h19.5c-1 11.5-10.5 16.4-19.5 16.4-11.5 0-21.6-9.1-21.6-21.7 0-12.4 9.6-21.9 21.6-21.9 9.3 0 14.7 5.9 14.7 5.9l5.7-5.9c0 0-7.3-8.2-20.7-8.2-17 0-30.2 14.4-30.2 30 0 15.2 12.4 30.1 30.7 30.1 16.1 0 27.8-11 27.8-27.3 0-3.6-0.5-5.6-0.5-5.6z"/><path fill-rule="evenodd" class="a" d="m109.9 130.1c0 11.1-8.6 19.2-19.2 19.2-11.6 0-19.5-9-19.5-19.5 0-10.3 8.1-19.1 19.4-19.1 9.3 0 19.3 6.6 19.3 19.4zm-30.2-0.2c0 6.9 4.8 11.8 11 11.8 5.5 0 10.8-4.6 10.8-11.7 0-7.2-5.2-11.7-10.8-11.7-6.2 0-11.1 5-11 11.6z"/><path fill-rule="evenodd" class="a" d="m152.1 130.1c0 11.1-8.6 19.2-19.2 19.2-11.6 0-19.5-9-19.5-19.5 0-10.3 8.1-19.1 19.4-19.1 9.3 0 19.3 6.6 19.3 19.4zm-30.2-0.2c0 6.9 4.8 11.8 11 11.8 5.5 0 10.8-4.6 10.8-11.7 0-7.2-5.2-11.7-10.8-11.7-6.3 0-11.1 5-11 11.6z"/><path fill-rule="evenodd" class="a" d="m184.7 115.1v-3.3h8.1v34.7c0 13.6-7.9 20.1-18.2 20.1-9.5 0-14.8-5.8-17.4-11.4l7.4-3.1c1 2.5 4 6.9 9.9 6.9 6.1 0 10.1-4 10.1-10.6v-3.8c-2.2 2.5-5.1 4.7-10.6 4.7-9 0-18.4-7.7-18.4-19.3 0-10.2 8.1-19.3 18.5-19.3 4.6 0 8 1.8 10.6 4.4zm-20.6 15.1c0 7.1 5.2 11.6 10.7 11.6 5.2 0 10.4-4.2 10.4-11.7 0-7.5-5.2-11.8-10.3-11.8-5.5 0-10.8 4.4-10.8 11.9z"/><path fill-rule="evenodd" class="a" d="m244.6 122l1.3 3.2-25.9 10.7c1.6 2.9 4.1 5.9 9.5 5.9 4.9 0 7.8-2.6 9.5-5.3l6.7 4.4c-3 4-8 8.5-16.2 8.5-9.7 0-18.9-7.2-18.9-19.4 0-11.5 8.2-19.3 18-19.3 7.7 0 13.5 5.1 16 11.3zm-25.8 7.4l17.3-7.2c-1-2.2-3.6-4.1-7.1-4.1-5.6 0-10.9 5.8-10.2 11.3z"/><path class="a" d="m198.3 148.2h8.5v-56.9h-8.5z"/></svg>